<svg xmlns="http://www.w3.org/2000/svg" xmlns:xlink="http://www.w3.org/1999/xlink" width="940" zoomAndPan="magnify" viewBox="0 0 705.12 472.50001" height="788" preserveAspectRatio="xMidYMid meet" version="1.0"><defs><clipPath id="afd0ad85d5"><path d="M 167 156 L 371 156 L 371 471.957031 L 167 471.957031 Z M 167 156 " clip-rule="nonzero"/></clipPath><clipPath id="50c81ec553"><path d="M 359 74.355469 L 396 74.355469 L 396 120 L 359 120 Z M 359 74.355469 " clip-rule="nonzero"/></clipPath><clipPath id="aefe0006a8"><path d="M 382 171 L 542 171 L 542 471.957031 L 382 471.957031 Z M 382 171 " clip-rule="nonzero"/></clipPath><clipPath id="9c19bfc48c"><path d="M 179 461 L 255 461 L 255 471.957031 L 179 471.957031 Z M 179 461 " clip-rule="nonzero"/></clipPath></defs><g clip-path="url(#afd0ad85d5)"><path fill="#020302" d="M 369.65625 186.066406 C 368.398438 184.464844 366.886719 183.117188 365.128906 182.035156 C 359.71875 178.6875 354.265625 175.765625 348.765625 173.28125 C 332.539062 165.949219 316.371094 160.578125 300.25 157.1875 C 297.109375 156.527344 294.011719 156.300781 290.960938 156.519531 C 289.808594 156.597656 288.789062 157.285156 288.261719 158.316406 C 275.496094 183.890625 264.257812 210.152344 254.546875 237.128906 C 251.378906 245.929688 248.527344 255.378906 246.023438 265.476562 C 241.6875 282.898438 240.71875 301.859375 245.871094 319.082031 C 247.464844 324.398438 250.964844 330.964844 252.390625 336.53125 C 254.800781 345.96875 254.429688 355.371094 251.632812 364.753906 C 250.394531 368.910156 249.410156 372.089844 248.667969 374.28125 C 240.289062 399.132812 231.429688 423.679688 220.796875 447.476562 C 218.578125 452.441406 212.605469 461.253906 206.273438 459.863281 C 198.382812 458.117188 190.800781 456.816406 183.519531 455.953125 C 179.992188 455.53125 172.003906 455.011719 169.050781 457.308594 C 158.089844 465.824219 205.605469 484.574219 219.644531 490.058594 C 226.652344 492.796875 261.800781 504.65625 266.65625 497.339844 C 271.53125 489.988281 241.808594 474.203125 236.75 471.34375 C 234.878906 470.277344 233.648438 468.761719 233.292969 466.753906 C 232.398438 461.578125 232.777344 456.304688 234.429688 450.925781 C 242.960938 423.222656 253.128906 396.078125 263.976562 368.847656 C 268.382812 357.78125 275.789062 349.394531 286.175781 343.6875 C 289.457031 341.890625 291.894531 340.589844 293.484375 339.789062 C 312.519531 330.261719 326.171875 310.234375 334.871094 291.527344 C 349.558594 259.910156 360.464844 225.648438 369.304688 191.929688 C 369.894531 189.675781 370.140625 188.027344 370.019531 186.980469 C 369.984375 186.648438 369.859375 186.328125 369.648438 186.066406 Z M 291.839844 159.257812 C 291.945312 158.976562 292.375 158.84375 293.140625 158.878906 C 296.042969 159.011719 298.921875 159.382812 301.761719 159.988281 C 310.171875 161.765625 319.847656 164.679688 330.78125 168.738281 C 341.710938 172.796875 350.941406 176.902344 358.46875 181.046875 C 361.019531 182.445312 363.4375 184.050781 365.734375 185.835938 C 366.332031 186.3125 366.578125 186.691406 366.472656 186.980469 C 366.375 187.226562 365.953125 187.332031 365.1875 187.296875 C 362.285156 187.15625 359.410156 186.789062 356.570312 186.1875 C 348.152344 184.410156 338.484375 181.496094 327.550781 177.4375 C 316.617188 173.378906 307.390625 169.277344 299.863281 165.128906 C 297.3125 163.730469 294.890625 162.128906 292.605469 160.332031 C 292.007812 159.855469 291.753906 159.503906 291.847656 159.257812 Z M 236.890625 476.835938 C 236.796875 476.359375 236.453125 475.488281 235.84375 474.222656 C 235.808594 474.140625 235.84375 474.0625 235.925781 474.027344 C 235.960938 474.011719 236.011719 474.011719 236.046875 474.027344 C 244.191406 478.386719 251.820312 483.289062 258.933594 488.738281 C 261.140625 490.429688 262.894531 492.425781 264.175781 494.714844 C 264.503906 495.304688 264.292969 496.054688 263.710938 496.378906 C 263.605469 496.441406 263.492188 496.476562 263.375 496.503906 C 260.738281 497.074219 257.289062 497.03125 255.1875 496.707031 C 245.414062 495.210938 235.914062 492.839844 226.664062 489.609375 C 210.066406 483.800781 191.875 476.078125 176.738281 466.449219 C 174.222656 464.84375 172.234375 463.121094 170.773438 461.269531 C 170.332031 460.714844 170.429688 459.90625 170.984375 459.464844 C 171.082031 459.394531 171.1875 459.335938 171.292969 459.289062 C 175.53125 457.554688 182.699219 458.382812 187.40625 459.113281 C 193.113281 460.003906 198.816406 461.078125 204.515625 462.320312 C 204.601562 462.34375 204.65625 462.433594 204.628906 462.519531 C 204.621094 462.566406 204.585938 462.601562 204.550781 462.625 C 202.730469 463.578125 201.648438 464.289062 201.3125 464.765625 C 197.855469 469.730469 221.472656 477.785156 224.445312 478.753906 C 226.910156 479.539062 229.503906 480.074219 232.222656 480.367188 C 234.402344 480.605469 237.429688 479.589844 236.890625 476.84375 Z M 366.921875 190.386719 C 366.464844 193.3125 363.183594 204.886719 357.085938 225.109375 C 351.1875 244.679688 344.273438 263.660156 336.339844 282.070312 C 326.988281 303.753906 313.425781 326.828125 291.8125 337.773438 C 288.734375 339.328125 285.03125 341.019531 281.9375 343.0625 C 275.15625 347.527344 269.648438 353.109375 265.398438 359.796875 C 263.816406 362.28125 260.71875 369.535156 256.101562 381.542969 C 247.023438 405.164062 239.214844 426.972656 232.679688 446.972656 C 231.238281 451.375 229.546875 458.179688 230.085938 463.261719 C 230.59375 468.050781 231.90625 472.566406 234.015625 476.792969 C 234.15625 477.074219 234.042969 477.417969 233.761719 477.558594 C 233.691406 477.59375 233.621094 477.609375 233.542969 477.621094 C 232.433594 477.707031 231.316406 477.621094 230.191406 477.355469 C 220.855469 475.179688 212.210938 471.625 204.242188 466.683594 C 204.046875 466.570312 203.988281 466.316406 204.101562 466.121094 C 204.144531 466.050781 204.207031 466 204.285156 465.964844 C 206.433594 464.976562 208.375 464.019531 210.125 463.101562 C 219.484375 458.15625 222.996094 449.894531 226.8125 440.660156 C 236.199219 417.972656 245.117188 393.746094 253.09375 368.988281 C 256.894531 357.203125 257.886719 346.796875 254.800781 335.324219 C 253.515625 330.554688 250.289062 324.265625 249.039062 320.296875 C 242.882812 300.726562 244.386719 280.933594 249.726562 261.277344 C 252.679688 250.378906 256.628906 238.492188 261.574219 225.621094 C 269.65625 204.578125 278.972656 183.273438 289.527344 161.695312 C 289.597656 161.546875 289.78125 161.484375 289.941406 161.554688 C 289.964844 161.574219 289.992188 161.582031 290.019531 161.609375 C 294.65625 165.941406 301.78125 169.109375 307.363281 171.722656 C 320.917969 178.054688 334.816406 183.214844 349.082031 187.210938 C 355.488281 189.007812 361.300781 189.921875 366.535156 189.957031 C 366.746094 189.957031 366.921875 190.125 366.921875 190.335938 C 366.921875 190.363281 366.921875 190.378906 366.921875 190.40625 Z M 366.921875 190.386719 " fill-opacity="1" fill-rule="nonzero"/></g><g clip-path="url(#50c81ec553)"><path fill="#020302" d="M 384.980469 101.859375 C 387.890625 99.488281 391.136719 98.757812 394.9375 98.117188 C 395.199219 98.070312 395.402344 97.941406 395.542969 97.71875 C 395.675781 97.507812 395.746094 97.261719 395.746094 96.988281 C 395.746094 96.714844 395.675781 96.488281 395.542969 96.285156 C 395.402344 96.066406 395.199219 95.933594 394.945312 95.878906 C 391.136719 95.210938 387.910156 94.453125 385.015625 92.066406 C 380.351562 88.21875 379.09375 81.027344 378.867188 75.339844 C 378.847656 75.03125 378.726562 74.777344 378.496094 74.566406 C 378.328125 74.417969 378.046875 74.347656 377.644531 74.347656 C 377.238281 74.347656 376.941406 74.417969 376.78125 74.558594 C 376.554688 74.769531 376.429688 75.023438 376.414062 75.332031 C 376.140625 81.019531 374.828125 88.210938 370.148438 92.015625 C 367.238281 94.375 363.992188 95.105469 360.183594 95.757812 C 359.921875 95.800781 359.71875 95.933594 359.585938 96.152344 C 359.453125 96.355469 359.382812 96.59375 359.382812 96.855469 C 359.382812 97.121094 359.445312 97.386719 359.578125 97.585938 C 359.71875 97.808594 359.921875 97.941406 360.175781 97.984375 C 363.984375 98.652344 367.21875 99.417969 370.113281 101.804688 C 374.777344 105.644531 376.035156 112.835938 376.261719 118.53125 C 376.28125 118.832031 376.402344 119.085938 376.632812 119.296875 C 376.789062 119.449219 377.070312 119.519531 377.476562 119.527344 C 377.898438 119.527344 378.179688 119.457031 378.339844 119.308594 C 378.566406 119.09375 378.691406 118.839844 378.71875 118.539062 C 378.980469 112.84375 380.292969 105.660156 384.980469 101.859375 Z M 377.792969 108.019531 C 377.792969 108.019531 377.730469 108.074219 377.652344 108.089844 L 377.511719 108.089844 C 377.433594 108.074219 377.371094 108.046875 377.371094 108.019531 C 375.578125 102.78125 372.242188 99.109375 367.351562 97.023438 C 367.273438 96.988281 367.230469 96.882812 367.273438 96.804688 C 367.289062 96.769531 367.324219 96.734375 367.359375 96.714844 C 372.214844 94.78125 375.453125 91.300781 377.089844 86.300781 C 377.351562 85.5 377.53125 85.105469 377.636719 85.105469 C 377.730469 85.105469 377.90625 85.507812 378.171875 86.308594 C 379.78125 91.3125 383.007812 94.796875 387.855469 96.761719 C 387.945312 96.796875 387.980469 96.890625 387.945312 96.980469 C 387.925781 97.023438 387.898438 97.050781 387.855469 97.070312 C 382.964844 99.136719 379.605469 102.789062 377.792969 108.019531 Z M 377.792969 108.019531 " fill-opacity="1" fill-rule="nonzero"/></g><path fill="#020302" d="M 422.019531 138.667969 C 425.800781 138.667969 428.871094 135.59375 428.871094 131.808594 C 428.871094 128.023438 425.800781 124.949219 422.019531 124.949219 C 418.238281 124.949219 415.167969 128.023438 415.167969 131.808594 C 415.167969 135.59375 418.238281 138.667969 422.019531 138.667969 Z M 421.976562 127.574219 C 424.332031 127.574219 426.242188 129.484375 426.242188 131.84375 C 426.242188 134.203125 424.332031 136.113281 421.976562 136.113281 C 419.617188 136.113281 417.707031 134.203125 417.707031 131.84375 C 417.707031 129.484375 419.617188 127.574219 421.976562 127.574219 Z M 421.976562 127.574219 " fill-opacity="1" fill-rule="nonzero"/><path fill="#020302" d="M 330.851562 143.277344 C 334.5625 143.277344 337.570312 140.269531 337.570312 136.554688 C 337.570312 132.839844 334.5625 129.828125 330.851562 129.828125 C 327.136719 129.828125 324.128906 132.839844 324.128906 136.554688 C 324.128906 140.269531 327.136719 143.277344 330.851562 143.277344 Z M 330.832031 132.476562 C 333.101562 132.476562 334.929688 134.316406 334.929688 136.578125 C 334.929688 138.84375 333.09375 140.683594 330.832031 140.683594 C 328.570312 140.683594 326.734375 138.84375 326.734375 136.578125 C 326.734375 134.316406 328.570312 132.476562 330.832031 132.476562 Z M 330.832031 132.476562 " fill-opacity="1" fill-rule="nonzero"/><path fill="#020302" d="M 385.746094 149.652344 C 387.996094 149.652344 389.824219 147.820312 389.824219 145.566406 C 389.824219 143.316406 387.996094 141.484375 385.746094 141.484375 C 383.492188 141.484375 381.664062 143.316406 381.664062 145.566406 C 381.664062 147.820312 383.492188 149.652344 385.746094 149.652344 Z M 384.292969 145.640625 C 384.292969 144.855469 384.925781 144.222656 385.710938 144.222656 C 386.492188 144.222656 387.125 144.855469 387.125 145.640625 C 387.125 146.421875 386.492188 147.054688 385.710938 147.054688 C 384.925781 147.054688 384.292969 146.421875 384.292969 145.640625 Z M 384.292969 145.640625 " fill-opacity="1" fill-rule="nonzero"/><path fill="#020302" d="M 408.429688 157.128906 C 410.214844 157.128906 411.667969 155.675781 411.667969 153.886719 C 411.667969 152.101562 410.214844 150.648438 408.429688 150.648438 C 406.644531 150.648438 405.191406 152.101562 405.191406 153.886719 C 405.191406 155.675781 406.644531 157.128906 408.429688 157.128906 Z M 408.429688 157.128906 " fill-opacity="1" fill-rule="nonzero"/><g clip-path="url(#aefe0006a8)"><path fill="#020302" d="M 523.839844 483.640625 C 518.378906 483.507812 511.171875 483.683594 502.238281 484.152344 C 497.910156 484.371094 493.203125 475.972656 491.929688 472.433594 C 488.25 462.25 485.480469 449.246094 483.160156 438.25 L 482.121094 433.6875 C 479.210938 420.34375 476.359375 406.414062 473.570312 391.914062 C 472.015625 383.859375 471.160156 378.144531 471.011719 374.773438 C 470.640625 366.746094 472.226562 359.15625 475.761719 351.988281 C 478.023438 347.402344 482.09375 341.996094 484.257812 337.535156 C 492.5625 320.402344 494.03125 301.28125 491.929688 282.371094 C 490.96875 273.707031 489.949219 266.585938 488.886719 260.996094 C 483.394531 232.207031 475.875 203.734375 466.304688 175.582031 C 465.59375 173.476562 464.890625 172.78125 462.894531 172.347656 C 460.289062 171.777344 457.625 171.53125 454.878906 171.617188 C 435.230469 172.191406 414.640625 176.855469 396.203125 183.027344 C 392.105469 184.402344 385.570312 186.824219 383.027344 189.867188 C 382.417969 190.582031 382.128906 191.507812 382.21875 192.4375 C 384.925781 223.703125 389.746094 255.050781 397.644531 285.722656 C 404.050781 310.578125 414.550781 336.082031 434.824219 351.445312 C 439.328125 354.859375 442.171875 357.113281 443.359375 358.214844 C 447.5625 362.113281 451.230469 366.761719 454.34375 372.175781 C 456.242188 375.488281 458.3125 381.675781 460.542969 390.734375 C 467.371094 418.476562 472.621094 443.796875 476.308594 466.695312 C 477.460938 473.851562 477.722656 479.671875 475.488281 485.796875 C 474.996094 487.152344 474.378906 488.226562 473.640625 489.011719 C 473.441406 489.230469 473.183594 489.390625 472.910156 489.496094 C 463.070312 493.0625 454.054688 496.484375 445.414062 501.53125 C 442.8125 503.054688 437.65625 506.335938 438.246094 509.964844 C 439.285156 516.304688 462.003906 514.332031 466.070312 513.945312 C 486.308594 512.007812 505.90625 507.71875 524.867188 501.074219 C 529.25 499.53125 539.066406 495.585938 541.265625 491.941406 C 545.863281 484.308594 527.085938 483.703125 523.839844 483.625 Z M 386.464844 190.230469 C 388.9375 188.8125 391.507812 187.605469 394.171875 186.613281 C 402.0625 183.660156 411.585938 180.984375 422.75 178.589844 C 433.910156 176.195312 443.699219 174.734375 452.109375 174.207031 C 454.949219 174.023438 457.78125 174.074219 460.613281 174.347656 C 461.363281 174.425781 461.765625 174.601562 461.828125 174.902344 C 461.882812 175.148438 461.582031 175.464844 460.933594 175.835938 C 458.460938 177.253906 455.890625 178.460938 453.226562 179.453125 C 445.34375 182.410156 435.820312 185.089844 424.648438 187.472656 C 413.488281 189.867188 403.695312 191.332031 395.296875 191.867188 C 392.457031 192.050781 389.625 192 386.792969 191.71875 C 386.042969 191.648438 385.648438 191.488281 385.585938 191.222656 C 385.523438 190.933594 385.816406 190.597656 386.464844 190.230469 Z M 472.769531 496.230469 C 472.789062 496.167969 472.816406 496.105469 472.851562 496.054688 C 476.894531 490.101562 479.921875 483.859375 479.941406 476.96875 C 479.941406 473.902344 479.550781 470.011719 478.769531 465.3125 C 477.035156 454.871094 475.628906 446.734375 474.371094 440.582031 C 470.484375 421.574219 466.175781 401.914062 461.449219 383.488281 C 458.582031 372.273438 452.847656 362.914062 444.253906 355.40625 C 440.3125 351.945312 433.902344 347.835938 429.953125 343.871094 C 422.976562 336.890625 417.320312 328.996094 412.976562 320.191406 C 404.25 302.503906 399.097656 283.019531 395.199219 263.96875 C 390.546875 241.265625 387.160156 218.191406 385.042969 194.726562 C 385.023438 194.515625 385.171875 194.332031 385.394531 194.304688 L 385.445312 194.304688 C 392.183594 194.78125 399.125 194.5 406.257812 193.476562 C 422.953125 191.101562 441.421875 187.035156 457.851562 180.5 C 459.945312 179.675781 461.898438 178.617188 463.710938 177.324219 C 463.859375 177.21875 464.070312 177.261719 464.167969 177.402344 C 464.1875 177.429688 464.203125 177.457031 464.210938 177.480469 C 471.511719 199.210938 477.722656 221.359375 482.832031 243.949219 C 485.078125 253.855469 487.054688 264.894531 488.796875 277.070312 C 491.488281 295.972656 490.953125 315.261719 483.679688 332.59375 C 481.539062 337.691406 478.59375 342.101562 475.417969 347.234375 C 470.378906 355.398438 467.820312 365.625 468.355469 374.367188 C 468.636719 378.992188 469.675781 385.964844 471.476562 395.285156 C 473.660156 406.617188 476.492188 420.15625 479.851562 435.933594 C 482.050781 446.285156 485.550781 460.953125 488.417969 470.523438 C 491.03125 479.238281 496.34375 485.84375 504.355469 490.324219 C 504.601562 490.457031 504.691406 490.761719 504.558594 491 C 504.496094 491.097656 504.410156 491.175781 504.304688 491.222656 C 495.824219 494.664062 486.984375 496.652344 477.820312 497.191406 C 476.140625 497.296875 474.589844 497.171875 473.15625 496.828125 C 472.886719 496.769531 472.71875 496.484375 472.78125 496.222656 Z M 538.792969 490.902344 C 538.722656 491 538.632812 491.089844 538.539062 491.160156 C 536.03125 493.132812 532.839844 494.917969 528.957031 496.511719 C 521.332031 499.644531 513.875 502.148438 506.574219 504.023438 C 490.960938 508.035156 473.652344 511.328125 457.097656 511.785156 C 451.792969 511.925781 445.519531 512.183594 441.441406 510.097656 C 440.886719 509.804688 440.675781 509.128906 440.957031 508.582031 C 440.972656 508.546875 440.992188 508.511719 441.019531 508.476562 C 441.863281 507.191406 443.03125 506.097656 444.519531 505.203125 C 452.585938 500.332031 461.40625 496.328125 470.976562 493.183594 C 471.066406 493.15625 471.152344 493.210938 471.179688 493.300781 C 471.195312 493.34375 471.179688 493.394531 471.152344 493.441406 C 467.421875 498.441406 472.453125 499.859375 476.273438 499.824219 C 484.285156 499.753906 492.304688 498.113281 500.214844 495.675781 C 502.730469 494.902344 504.578125 494.152344 505.738281 493.429688 C 509.546875 491.0625 506.484375 488.765625 504.390625 487.066406 C 504.296875 486.988281 504.277344 486.847656 504.367188 486.75 C 504.410156 486.695312 504.460938 486.667969 504.523438 486.667969 C 516.804688 486.140625 525.316406 485.570312 535.027344 487.59375 C 536.496094 487.902344 537.65625 488.367188 538.492188 488.984375 C 539.101562 489.441406 539.234375 490.304688 538.785156 490.914062 Z M 538.792969 490.902344 " fill-opacity="1" fill-rule="nonzero"/></g><path fill="#020302" d="M 348.785156 224.554688 C 346.945312 224.125 345.820312 223.886719 345.40625 223.832031 C 335.0625 222.476562 324.578125 222.117188 313.953125 222.75 C 298.507812 223.667969 286.140625 225.117188 276.84375 227.117188 C 274.820312 227.558594 260.210938 230.523438 262.488281 234.003906 C 262.601562 234.1875 262.875 234.390625 263.296875 234.617188 C 265.398438 235.761719 267.925781 236.644531 270.871094 237.269531 C 276.859375 238.535156 282.773438 238.90625 288.472656 238.738281 C 301.109375 238.367188 314.191406 236.96875 327.691406 234.554688 C 334.210938 233.394531 339.40625 232.207031 343.285156 231 C 345.53125 230.304688 347.449219 229.46875 349.058594 228.5 C 350.085938 227.875 350.585938 226.6875 350.289062 225.601562 C 350.15625 225.109375 349.65625 224.765625 348.777344 224.5625 Z M 346.320312 226.808594 C 345.714844 227.328125 344.957031 227.734375 344.042969 228.015625 C 340.234375 229.210938 335.988281 230.269531 331.289062 231.183594 C 316.222656 234.117188 301.867188 235.753906 288.199219 236.097656 C 280.75 236.28125 273.078125 235.957031 266.605469 233.296875 C 266.394531 233.210938 266.289062 232.964844 266.375 232.75 C 266.421875 232.644531 266.507812 232.566406 266.613281 232.523438 C 268.609375 231.738281 270.828125 231.089844 273.261719 230.550781 C 289.789062 226.933594 307.785156 225.09375 327.242188 225.046875 C 329.6875 225.046875 336.011719 225.507812 346.199219 226.441406 C 346.3125 226.449219 346.402344 226.554688 346.382812 226.667969 C 346.382812 226.722656 346.347656 226.773438 346.3125 226.808594 Z M 346.320312 226.808594 " fill-opacity="1" fill-rule="nonzero"/><path fill="#020302" d="M 344.246094 236.695312 C 322.316406 241.574219 299.070312 243.589844 276.871094 240.480469 C 272.410156 239.855469 267.855469 238.578125 263.199219 236.644531 C 262.917969 236.527344 262.59375 236.589844 262.382812 236.800781 C 262.109375 237.066406 261.925781 237.347656 261.828125 237.621094 C 257.984375 248.183594 254.765625 259.957031 252.179688 272.941406 C 248.8125 289.800781 248.492188 319.804688 265.488281 330.21875 C 278.285156 338.054688 293.019531 332.3125 303.390625 322.65625 C 310.679688 315.851562 316.925781 307.988281 322.117188 299.078125 C 332.53125 281.214844 340.207031 261.398438 346.234375 241.5625 C 346.699219 240.023438 346.980469 239.054688 347.078125 238.660156 C 347.554688 236.738281 345.644531 236.386719 344.246094 236.695312 Z M 343.921875 240.066406 C 337.492188 260.703125 329.945312 280.671875 319.460938 298.367188 C 312.835938 309.53125 304.144531 320.429688 293.105469 327.003906 C 279.304688 335.234375 263.761719 331.617188 257.359375 316.289062 C 252.285156 304.113281 251.949219 288.777344 254.246094 276.09375 C 256.453125 263.863281 259.613281 251.953125 263.71875 240.367188 C 263.851562 240.007812 264.238281 239.820312 264.597656 239.945312 C 264.625 239.953125 264.652344 239.960938 264.679688 239.980469 C 266.386719 240.84375 268.179688 241.46875 270.050781 241.863281 C 278.433594 243.625 287.25 244.523438 296.511719 244.558594 C 312.007812 244.628906 327.683594 242.980469 343.542969 239.628906 C 343.71875 239.59375 343.894531 239.707031 343.9375 239.890625 C 343.945312 239.953125 343.945312 240.007812 343.9375 240.066406 Z M 343.921875 240.066406 " fill-opacity="1" fill-rule="nonzero"/><path fill="#020302" d="M 280.976562 339.011719 C 276.730469 339.523438 272.65625 339.144531 268.75 337.859375 C 264.828125 336.644531 261.273438 334.59375 258.117188 331.707031 C 258.097656 331.6875 258.082031 331.679688 258.0625 331.660156 C 257.570312 331.265625 256.851562 331.355469 256.453125 331.847656 L 256.394531 331.925781 C 255.960938 332.480469 256.003906 333.265625 256.507812 333.757812 C 259.59375 336.820312 263.851562 339.09375 267.941406 340.394531 C 272.015625 341.699219 276.808594 342.324219 281.101562 341.617188 C 281.796875 341.503906 282.296875 340.878906 282.253906 340.175781 L 282.253906 340.078125 C 282.253906 340.078125 282.253906 340.035156 282.253906 340.007812 C 282.183594 339.382812 281.609375 338.933594 280.984375 339.003906 Z M 280.976562 339.011719 " fill-opacity="1" fill-rule="nonzero"/><g clip-path="url(#9c19bfc48c)"><path fill="#020302" d="M 186.703125 465.875 C 185.128906 464.941406 183.527344 463.605469 181.910156 461.878906 C 181.855469 461.816406 181.796875 461.765625 181.722656 461.71875 C 181.195312 461.339844 180.457031 461.472656 180.078125 462 L 180.027344 462.089844 C 179.550781 462.757812 179.632812 463.675781 180.230469 464.238281 C 181.539062 465.488281 183.0625 466.660156 184.804688 467.757812 C 194.1875 473.691406 204.285156 478.164062 215 482.347656 C 225.703125 486.539062 236.152344 490.113281 247.070312 492.121094 C 249.09375 492.488281 251 492.664062 252.8125 492.636719 C 253.628906 492.628906 254.316406 492.011719 254.421875 491.195312 L 254.441406 491.089844 C 254.449219 491.011719 254.449219 490.929688 254.441406 490.851562 C 254.386719 490.199219 253.824219 489.714844 253.171875 489.761719 C 250.816406 489.9375 248.742188 489.832031 246.945312 489.441406 C 236.496094 487.214844 226.320312 483.898438 215.976562 479.847656 C 205.613281 475.796875 195.886719 471.34375 186.695312 465.875 Z M 186.703125 465.875 " fill-opacity="1" fill-rule="nonzero"/></g><path fill="#020302" d="M 477.230469 248.289062 C 478.136719 248.027344 478.726562 247.425781 479.015625 246.511719 C 479.140625 246.117188 479.015625 245.675781 478.683594 245.421875 C 477.054688 244.109375 475.382812 243.035156 473.640625 242.199219 C 462.355469 236.75 450.15625 233.5625 437.640625 231.554688 C 425.132812 229.546875 412.546875 228.753906 400.125 230.417969 C 398.226562 230.664062 396.289062 231.167969 394.339844 231.90625 C 393.953125 232.046875 393.6875 232.425781 393.6875 232.839844 C 393.679688 233.808594 394.058594 234.554688 394.832031 235.09375 C 405.765625 242.726562 421.632812 246.230469 434.957031 248.371094 C 448.292969 250.507812 464.457031 252.128906 477.222656 248.289062 Z M 397.558594 233.808594 C 397.582031 233.660156 397.636719 233.578125 397.714844 233.5625 C 410.882812 231.078125 424.429688 232.125 437.199219 234.160156 C 449.964844 236.203125 463.15625 239.433594 474.890625 245.90625 C 474.96875 245.949219 474.996094 246.035156 474.96875 246.1875 C 474.945312 246.328125 474.890625 246.40625 474.8125 246.425781 C 461.644531 248.90625 448.097656 247.859375 435.335938 245.824219 C 422.5625 243.78125 409.371094 240.550781 397.636719 234.082031 C 397.558594 234.039062 397.53125 233.949219 397.558594 233.808594 Z M 397.558594 233.808594 " fill-opacity="1" fill-rule="nonzero"/><path fill="#020302" d="M 466.667969 343.300781 C 482.351562 332.957031 485.851562 307.714844 484.988281 290.601562 C 484.3125 277.226562 482.429688 263.980469 479.324219 250.859375 C 479.324219 250.835938 479.316406 250.816406 479.304688 250.800781 C 479.140625 250.246094 478.550781 249.9375 477.996094 250.105469 C 463.472656 254.445312 447.121094 254.058594 432.863281 251.785156 C 421.148438 249.917969 409.808594 247.285156 398.851562 243.886719 C 398.234375 243.703125 397.574219 243.984375 397.292969 244.550781 C 397.03125 245.09375 396.949219 245.765625 397.074219 246.574219 C 398.367188 255.4375 399.96875 263.917969 401.867188 272 C 407.207031 294.757812 414.429688 318.507812 430.816406 335.921875 C 440.183594 345.871094 454.105469 351.558594 466.65625 343.28125 Z M 426.511719 326.695312 C 419.828125 317.082031 414.710938 306.722656 411.148438 295.628906 C 406.035156 279.695312 402.261719 263.617188 399.816406 247.382812 C 399.792969 247.207031 399.90625 247.039062 400.082031 247.015625 C 400.132812 247.003906 400.195312 247.015625 400.25 247.03125 C 404.867188 248.644531 413.003906 250.640625 424.667969 253.019531 C 441.378906 256.417969 460.28125 257.832031 476.941406 253.042969 C 477.082031 253 477.222656 253.089844 477.265625 253.230469 C 477.265625 253.230469 477.265625 253.238281 477.265625 253.246094 C 480.996094 270.582031 483.6875 289.78125 481.980469 306.203125 C 480.597656 319.46875 474.742188 338.292969 460.71875 343.40625 C 446.972656 348.425781 434.148438 337.703125 426.511719 326.714844 Z M 426.511719 326.695312 " fill-opacity="1" fill-rule="nonzero"/><path fill="#020302" d="M 471.699219 348 L 471.652344 347.921875 C 471.652344 347.921875 471.636719 347.886719 471.617188 347.871094 C 471.257812 347.351562 470.546875 347.21875 470.027344 347.578125 C 466.542969 350.035156 462.777344 351.628906 458.75 352.359375 C 454.730469 353.144531 450.648438 353.027344 446.515625 352 C 446.488281 352 446.472656 351.988281 446.445312 351.980469 C 445.820312 351.867188 445.230469 352.28125 445.117188 352.90625 L 445.117188 352.992188 C 444.976562 353.6875 445.390625 354.367188 446.066406 354.570312 C 450.226562 355.792969 455.039062 355.757812 459.234375 354.972656 C 463.429688 354.191406 467.925781 352.464844 471.355469 349.816406 C 471.910156 349.382812 472.058594 348.609375 471.6875 348.011719 Z M 471.699219 348 " fill-opacity="1" fill-rule="nonzero"/><path fill="#020302" d="M 326.46875 253.125 C 325.457031 253.125 324.640625 253.941406 324.640625 254.953125 C 324.640625 255.96875 325.457031 256.785156 326.46875 256.785156 C 327.480469 256.785156 328.300781 255.96875 328.300781 254.953125 C 328.300781 253.941406 327.480469 253.125 326.46875 253.125 Z M 326.46875 253.125 " fill-opacity="1" fill-rule="nonzero"/><path fill="#020302" d="M 319.589844 258.777344 C 319.589844 257.289062 318.386719 256.074219 316.890625 256.074219 C 315.394531 256.074219 314.191406 257.277344 314.191406 258.777344 C 314.191406 260.273438 315.394531 261.476562 316.890625 261.476562 C 318.386719 261.476562 319.589844 260.273438 319.589844 258.777344 Z M 319.589844 258.777344 " fill-opacity="1" fill-rule="nonzero"/><path fill="#020302" d="M 275.191406 267.394531 C 273.675781 267.394531 272.445312 268.617188 272.445312 270.140625 C 272.445312 271.664062 273.667969 272.886719 275.191406 272.886719 C 276.710938 272.886719 277.933594 271.664062 277.933594 270.140625 C 277.933594 268.628906 276.703125 267.394531 275.191406 267.394531 Z M 275.191406 267.394531 " fill-opacity="1" fill-rule="nonzero"/><path fill="#020302" d="M 319.75 273.558594 C 318.710938 273.558594 317.875 274.402344 317.875 275.433594 C 317.875 276.460938 318.71875 277.308594 319.75 277.308594 C 320.777344 277.308594 321.621094 276.460938 321.621094 275.433594 C 321.621094 274.402344 320.777344 273.558594 319.75 273.558594 Z M 319.75 273.558594 " fill-opacity="1" fill-rule="nonzero"/><path fill="#020302" d="M 309.183594 276.769531 C 308.148438 276.769531 307.3125 277.617188 307.3125 278.644531 C 307.3125 279.675781 308.15625 280.519531 309.183594 280.519531 C 310.214844 280.519531 311.058594 279.675781 311.058594 278.644531 C 311.058594 277.617188 310.214844 276.769531 309.183594 276.769531 Z M 309.183594 276.769531 " fill-opacity="1" fill-rule="nonzero"/><path fill="#020302" d="M 268.125 285.582031 C 266.605469 285.582031 265.363281 286.816406 265.363281 288.347656 C 265.363281 289.878906 266.597656 291.113281 268.125 291.113281 C 269.65625 291.113281 270.886719 289.878906 270.886719 288.347656 C 270.886719 286.816406 269.65625 285.582031 268.125 285.582031 Z M 268.125 285.582031 " fill-opacity="1" fill-rule="nonzero"/><path fill="#020302" d="M 301.339844 286.84375 C 299.84375 286.84375 298.621094 288.058594 298.621094 289.5625 C 298.621094 291.066406 299.835938 292.28125 301.339844 292.28125 C 302.835938 292.28125 304.058594 291.066406 304.058594 289.5625 C 304.058594 288.058594 302.84375 286.84375 301.339844 286.84375 Z M 301.339844 286.84375 " fill-opacity="1" fill-rule="nonzero"/><path fill="#020302" d="M 288.65625 304.730469 C 286.625 304.730469 284.96875 306.378906 284.96875 308.421875 C 284.96875 310.460938 286.617188 312.109375 288.65625 312.109375 C 290.695312 312.109375 292.339844 310.460938 292.339844 308.421875 C 292.339844 306.378906 290.695312 304.730469 288.65625 304.730469 Z M 289.703125 308.78125 C 289.484375 309.386719 288.894531 309.722656 288.390625 309.539062 C 287.882812 309.351562 287.652344 308.71875 287.863281 308.113281 C 288.074219 307.503906 288.671875 307.171875 289.175781 307.355469 C 289.683594 307.539062 289.914062 308.171875 289.703125 308.78125 Z M 289.703125 308.78125 " fill-opacity="1" fill-rule="nonzero"/><path fill="#020302" d="M 283.757812 317.769531 C 283.757812 318.023438 283.707031 318.265625 283.609375 318.5 C 283.515625 318.734375 283.375 318.941406 283.199219 319.121094 C 283.019531 319.300781 282.8125 319.4375 282.578125 319.535156 C 282.34375 319.632812 282.101562 319.679688 281.847656 319.679688 C 281.59375 319.679688 281.351562 319.632812 281.117188 319.535156 C 280.882812 319.4375 280.675781 319.300781 280.5 319.121094 C 280.320312 318.941406 280.179688 318.734375 280.085938 318.5 C 279.988281 318.265625 279.9375 318.023438 279.9375 317.769531 C 279.9375 317.515625 279.988281 317.273438 280.085938 317.039062 C 280.179688 316.804688 280.320312 316.597656 280.5 316.417969 C 280.675781 316.238281 280.882812 316.101562 281.117188 316.003906 C 281.351562 315.90625 281.59375 315.859375 281.847656 315.859375 C 282.101562 315.859375 282.34375 315.90625 282.578125 316.003906 C 282.8125 316.101562 283.019531 316.238281 283.199219 316.417969 C 283.375 316.597656 283.515625 316.804688 283.609375 317.039062 C 283.707031 317.273438 283.757812 317.515625 283.757812 317.769531 Z M 283.757812 317.769531 " fill-opacity="1" fill-rule="nonzero"/><path fill="#020302" d="M 413.292969 261.980469 C 412.316406 261.585938 411.234375 261.996094 410.875 262.894531 C 410.515625 263.792969 411.007812 264.839844 411.984375 265.238281 C 412.960938 265.632812 414.039062 265.21875 414.402344 264.320312 C 414.761719 263.425781 414.269531 262.375 413.292969 261.980469 Z M 413.292969 261.980469 " fill-opacity="1" fill-rule="nonzero"/><path fill="#020302" d="M 421.667969 265.976562 C 420.199219 265.976562 419.011719 267.164062 419.011719 268.636719 C 419.011719 270.105469 420.199219 271.292969 421.667969 271.292969 C 423.136719 271.292969 424.324219 270.105469 424.324219 268.636719 C 424.324219 267.164062 423.136719 265.976562 421.667969 265.976562 Z M 421.667969 265.976562 " fill-opacity="1" fill-rule="nonzero"/><path fill="#020302" d="M 417.375 283.25 C 416.363281 283.25 415.546875 284.070312 415.546875 285.082031 C 415.546875 286.09375 416.363281 286.914062 417.375 286.914062 C 418.386719 286.914062 419.203125 286.09375 419.203125 285.082031 C 419.203125 284.070312 418.386719 283.25 417.375 283.25 Z M 417.375 283.25 " fill-opacity="1" fill-rule="nonzero"/><path fill="#020302" d="M 464.484375 286.808594 C 464.484375 285.308594 463.269531 284.085938 461.765625 284.085938 C 460.261719 284.085938 459.050781 285.300781 459.050781 286.808594 C 459.050781 288.3125 460.261719 289.527344 461.765625 289.527344 C 463.269531 289.527344 464.484375 288.3125 464.484375 286.808594 Z M 464.484375 286.808594 " fill-opacity="1" fill-rule="nonzero"/><path fill="#020302" d="M 427.488281 287.632812 C 426.453125 287.632812 425.617188 288.480469 425.617188 289.507812 C 425.617188 290.539062 426.460938 291.386719 427.488281 291.386719 C 428.519531 291.386719 429.363281 290.539062 429.363281 289.507812 C 429.363281 288.472656 428.519531 287.632812 427.488281 287.632812 Z M 427.488281 287.632812 " fill-opacity="1" fill-rule="nonzero"/><path fill="#020302" d="M 433.742188 298.542969 C 432.238281 298.542969 431.015625 299.765625 431.015625 301.269531 C 431.015625 302.777344 432.238281 304 433.742188 304 C 435.246094 304 436.46875 302.777344 436.46875 301.269531 C 436.46875 299.765625 435.246094 298.542969 433.742188 298.542969 Z M 433.742188 298.542969 " fill-opacity="1" fill-rule="nonzero"/><path fill="#020302" d="M 466.726562 308.683594 C 468.265625 308.683594 469.523438 307.433594 469.523438 305.882812 C 469.523438 304.335938 468.277344 303.085938 466.726562 303.085938 C 465.179688 303.085938 463.929688 304.335938 463.929688 305.882812 C 463.929688 307.433594 465.179688 308.683594 466.726562 308.683594 Z M 466.726562 308.683594 " fill-opacity="1" fill-rule="nonzero"/><path fill="#020302" d="M 446.375 321.632812 C 446.15625 320.261719 444.949219 319.320312 443.691406 319.523438 C 442.433594 319.722656 441.589844 321 441.808594 322.375 C 442.03125 323.746094 443.234375 324.6875 444.492188 324.488281 C 445.75 324.285156 446.59375 323.007812 446.375 321.632812 Z M 446.375 321.632812 " fill-opacity="1" fill-rule="nonzero"/><path fill="#020302" d="M 449.363281 329.636719 C 448.320312 329.636719 447.472656 330.480469 447.472656 331.53125 C 447.472656 332.578125 448.320312 333.421875 449.363281 333.421875 C 450.410156 333.421875 451.257812 332.578125 451.257812 331.53125 C 451.257812 330.480469 450.410156 329.636719 449.363281 329.636719 Z M 449.363281 329.636719 " fill-opacity="1" fill-rule="nonzero"/></svg>