<svg xmlns="http://www.w3.org/2000/svg" xmlns:xlink="http://www.w3.org/1999/xlink" width="940" zoomAndPan="magnify" viewBox="0 0 705 591.000005" height="788" preserveAspectRatio="xMidYMid meet" version="1.0"><defs><clipPath id="7cf31d3024"><path d="M 195 59 L 510.210938 59 L 510.210938 520.96875 L 195 520.96875 Z M 195 59 " clip-rule="nonzero"/></clipPath></defs><g clip-path="url(#7cf31d3024)"><path fill="#211915" d="M 509.257812 186.84375 C 506.9375 183.914062 502.324219 182.605469 498.941406 181.535156 C 492.148438 179.378906 485.074219 178.046875 478.054688 176.898438 C 456.113281 173.285156 433.804688 171.675781 411.609375 170.582031 C 383.246094 169.175781 354.8125 168.878906 326.421875 169.554688 C 319.882812 169.703125 313.347656 169.929688 306.808594 170.207031 C 301.894531 157.722656 290.859375 147.746094 277.183594 146.308594 C 274.261719 146 271.277344 146.160156 268.390625 146.707031 C 264.632812 137.566406 260.878906 128.429688 257.109375 119.289062 C 250.679688 103.652344 244.238281 88.015625 237.808594 72.386719 C 236.328125 68.792969 234.847656 65.199219 233.375 61.605469 C 232.796875 60.210938 229.351562 58.957031 228.128906 60.082031 C 223.0625 64.75 217.996094 69.414062 212.917969 74.082031 C 212.722656 74.253906 212.671875 74.457031 212.734375 74.703125 C 217.296875 83.691406 221.871094 92.667969 226.429688 101.65625 C 233.710938 115.964844 240.976562 130.285156 248.253906 144.59375 C 249.917969 147.863281 251.582031 151.148438 253.246094 154.417969 C 253.300781 154.527344 253.386719 154.613281 253.460938 154.71875 C 250.121094 158.128906 247.609375 162.3125 246.128906 166.894531 C 245.257812 169.5625 244.722656 172.320312 244.476562 175.097656 C 234.042969 176.40625 223.554688 177.984375 213.441406 180.835938 C 209.71875 181.886719 206.015625 183.132812 202.570312 184.933594 C 200.273438 186.136719 196.921875 187.789062 195.804688 190.320312 C 195.109375 191.90625 195.828125 193.234375 196.976562 194.285156 C 197.117188 194.621094 197.296875 194.917969 197.511719 195.144531 C 198.875 196.570312 200.25 198 201.613281 199.425781 C 205.339844 203.308594 209.050781 207.191406 212.777344 211.085938 C 218.316406 216.867188 223.84375 222.636719 229.382812 228.417969 C 236.101562 235.433594 242.832031 242.457031 249.554688 249.472656 C 256.917969 257.164062 264.28125 264.84375 271.644531 272.53125 C 279.082031 280.289062 286.511719 288.054688 293.949219 295.808594 C 300.917969 303.082031 307.882812 310.351562 314.847656 317.613281 C 320.710938 323.726562 326.558594 329.84375 332.421875 335.957031 C 335.535156 339.207031 338.648438 342.445312 341.75 345.695312 C 341.8125 350.425781 341.867188 355.144531 341.933594 359.875 C 342.09375 372.574219 342.253906 385.273438 342.425781 397.960938 C 342.617188 413.3125 342.824219 428.648438 343.015625 444 C 343.1875 457.265625 343.359375 470.535156 343.53125 483.8125 C 343.554688 485.378906 343.554688 486.957031 343.5625 488.53125 C 338.667969 488.585938 333.773438 488.789062 328.890625 489.070312 C 319.28125 489.617188 309.546875 490.355469 300.132812 492.449219 C 296.332031 493.296875 292.371094 494.3125 289.011719 496.339844 C 287.734375 497.113281 286.53125 498.089844 285.714844 499.355469 C 284.730469 500.898438 284.695312 502.917969 284.675781 504.675781 C 284.652344 506.648438 284.988281 508.664062 286.230469 510.265625 C 287.617188 512.035156 289.632812 512.96875 291.71875 513.675781 C 294.324219 514.542969 297.042969 515.027344 299.734375 515.53125 C 302.214844 515.992188 304.695312 516.484375 307.195312 516.871094 C 317.394531 518.425781 327.75 519.089844 338.046875 519.703125 C 350.925781 520.464844 363.839844 520.9375 376.742188 520.839844 C 382.355469 520.796875 387.960938 520.636719 393.554688 520.207031 C 399.597656 519.746094 405.972656 519.039062 411.554688 516.527344 C 415.332031 514.824219 419.144531 511.949219 418.929688 507.390625 C 418.769531 504.054688 416.203125 500.652344 413.753906 498.5625 C 411.09375 496.289062 407.140625 495.460938 403.824219 494.734375 C 398.824219 493.640625 393.722656 493.015625 388.648438 492.480469 C 380.316406 491.601562 371.945312 491.097656 363.570312 490.816406 C 363.089844 490.808594 362.605469 490.785156 362.121094 490.773438 C 362.101562 490.773438 362.070312 490.773438 362.046875 490.773438 C 362.046875 490.539062 362.058594 490.3125 362.058594 490.078125 C 362.25 477.464844 362.445312 464.851562 362.628906 452.238281 C 362.851562 437.039062 363.089844 421.828125 363.316406 406.628906 C 363.507812 393.488281 363.710938 380.339844 363.90625 367.199219 C 364 360.820312 364.378906 354.371094 364.195312 347.992188 C 364.195312 347.90625 364.195312 347.808594 364.195312 347.722656 C 364.207031 347.304688 364.011719 346.90625 363.734375 346.542969 C 365.792969 344.363281 367.84375 342.1875 369.90625 340.011719 C 375.445312 334.144531 380.992188 328.265625 386.53125 322.398438 C 393.328125 315.199219 400.132812 308.003906 406.925781 300.796875 C 414.34375 292.945312 421.75 285.09375 429.167969 277.242188 C 436.652344 269.316406 444.132812 261.390625 451.625 253.472656 C 458.601562 246.082031 465.578125 238.691406 472.566406 231.300781 C 478.472656 225.058594 484.363281 218.808594 490.269531 212.5625 C 494.519531 208.070312 498.757812 203.574219 503.011719 199.082031 C 505.027344 196.945312 507.132812 194.867188 509.074219 192.667969 C 509.160156 192.570312 509.246094 192.484375 509.332031 192.398438 C 509.910156 191.789062 509.988281 190.898438 509.742188 190.050781 C 510.160156 189.0625 510.148438 187.96875 509.257812 186.84375 Z M 384.40625 172.597656 C 408.386719 173.273438 432.410156 174.582031 456.25 177.40625 C 464.882812 178.421875 473.5 179.636719 482.015625 181.363281 C 487.703125 182.519531 493.542969 183.796875 498.886719 186.101562 C 500.488281 186.789062 503.105469 187.894531 504.375 189.589844 C 503.480469 190.53125 502.601562 191.464844 501.710938 192.398438 C 500.53125 193.652344 499.339844 194.910156 498.15625 196.164062 C 497.136719 196.484375 496.109375 196.785156 495.078125 197.066406 C 491.835938 197.933594 488.5625 198.664062 485.265625 199.316406 C 476.507812 201.042969 467.652344 202.257812 458.785156 203.265625 C 434.773438 206 410.589844 207.265625 386.4375 207.898438 C 358.429688 208.628906 330.371094 208.414062 302.386719 207.136719 C 302.238281 207.125 302.085938 207.125 301.9375 207.117188 C 308.527344 199.242188 310.867188 188.054688 308.976562 177.898438 C 308.667969 176.203125 308.246094 174.539062 307.742188 172.890625 C 333.28125 171.921875 358.859375 171.878906 384.40625 172.597656 Z M 244.96875 128.363281 C 237.691406 114.058594 230.425781 99.738281 223.148438 85.429688 C 221.535156 82.253906 219.925781 79.078125 218.304688 75.914062 C 222.148438 72.386719 225.980469 68.847656 229.824219 65.316406 C 233.257812 73.664062 236.691406 82.007812 240.128906 90.351562 C 246.558594 105.992188 253 121.628906 259.429688 137.257812 C 260.8125 140.636719 262.207031 144.003906 263.59375 147.382812 C 260.953125 148.003906 258.417969 149.066406 256.316406 150.707031 C 252.535156 143.253906 248.757812 135.808594 244.96875 128.363281 Z M 250.402344 172.8125 C 252.226562 161.292969 260.621094 150.394531 272.898438 149.515625 C 286.554688 148.539062 297.953125 160.648438 302.054688 172.929688 C 302.066406 172.972656 302.074219 173.007812 302.085938 173.050781 C 302.085938 173.050781 302.085938 173.058594 302.085938 173.058594 C 305.703125 184.398438 304.179688 198.050781 295.722656 206.816406 C 283.710938 206.203125 271.699219 205.386719 259.730469 204.199219 C 252.140625 195.894531 248.652344 183.851562 250.402344 172.8125 Z M 355.757812 334.28125 C 355.230469 334.871094 354.683594 335.453125 354.136719 336.03125 C 351.722656 333.382812 349.296875 330.730469 346.878906 328.082031 C 339.238281 319.707031 331.585938 311.316406 323.941406 302.941406 C 314.71875 292.835938 305.5 282.734375 296.277344 272.617188 C 288.28125 263.855469 280.285156 255.09375 272.289062 246.328125 C 270.214844 244.054688 268.144531 241.792969 266.074219 239.519531 C 266.941406 239.734375 267.8125 239.925781 268.679688 240.121094 C 278.417969 242.273438 288.398438 243.433594 298.371094 244.25 C 304.921875 257.128906 311.457031 270 318.003906 282.882812 C 319.617188 286.046875 321.226562 289.222656 322.835938 292.386719 C 323.554688 293.804688 328.867188 292.644531 328.449219 291.636719 C 324.746094 282.636719 321.042969 273.636719 317.339844 264.648438 C 314.644531 258.117188 311.960938 251.574219 309.265625 245.042969 C 327.921875 246.242188 346.65625 246.585938 365.34375 246.320312 C 382.679688 246.070312 400.058594 245.332031 417.296875 243.488281 C 423.480469 242.820312 429.664062 242.027344 435.78125 240.859375 C 436.996094 240.625 438.21875 240.375 439.441406 240.109375 C 438.359375 241.332031 437.273438 242.554688 436.1875 243.765625 C 428.71875 252.164062 421.257812 260.5625 413.785156 268.972656 C 404.792969 279.097656 395.796875 289.210938 386.800781 299.335938 C 379.019531 308.089844 371.246094 316.84375 363.464844 325.59375 C 360.910156 328.480469 358.332031 331.375 355.757812 334.28125 Z M 291.03125 215.085938 C 293.125 220.167969 295.214844 225.253906 297.308594 230.347656 C 296.160156 228.085938 295.011719 225.820312 293.863281 223.570312 C 292.511719 220.898438 291.148438 218.238281 289.796875 215.566406 C 290.203125 215.40625 290.621094 215.246094 291.03125 215.085938 Z M 295.859375 239.304688 C 290.03125 238.789062 284.214844 238.15625 278.429688 237.332031 C 273.480469 236.632812 268.519531 235.816406 263.691406 234.53125 C 262.691406 234.261719 261.703125 233.960938 260.714844 233.640625 C 260.707031 233.628906 260.707031 233.621094 260.695312 233.621094 C 260.640625 233.566406 260.585938 233.5 260.535156 233.449219 C 260.007812 232.867188 259.148438 232.664062 258.289062 232.738281 C 258.152344 232.675781 258.011719 232.621094 257.871094 232.558594 C 257.871094 232.558594 257.859375 232.558594 257.859375 232.558594 C 258.570312 231.882812 259.609375 231.3125 260.597656 230.882812 C 265.988281 228.503906 272.128906 227.613281 277.890625 226.710938 C 281.488281 226.152344 285.105469 225.703125 288.722656 225.296875 C 291.105469 229.949219 293.488281 234.628906 295.859375 239.304688 Z M 449.253906 232 C 449.253906 232 449.261719 232.011719 449.261719 232.011719 C 449.285156 232.03125 449.273438 232.019531 449.253906 232 Z M 447.40625 231.335938 C 445.195312 233.09375 442.070312 233.875 439.398438 234.5625 C 434.460938 235.839844 429.40625 236.664062 424.359375 237.375 C 409.375 239.476562 394.207031 240.398438 379.09375 240.957031 C 360.503906 241.632812 341.878906 241.632812 323.285156 240.921875 C 317.953125 240.71875 312.617188 240.472656 307.269531 240.140625 C 305.070312 234.800781 302.871094 229.457031 300.667969 224.105469 C 317.199219 222.753906 333.796875 222.207031 350.367188 222.121094 C 368.167969 222.035156 385.996094 222.496094 403.75 223.816406 C 415.921875 224.714844 428.351562 225.746094 440.257812 228.621094 C 442.082031 229.0625 443.898438 229.554688 445.65625 230.199219 C 446.324219 230.433594 446.976562 230.691406 447.621094 230.992188 C 447.652344 231.003906 447.6875 231.023438 447.730469 231.046875 C 447.621094 231.152344 447.515625 231.25 447.40625 231.335938 Z M 278.953125 213.914062 C 273.609375 213.734375 268.316406 211.4375 263.980469 208.125 C 263.871094 208.046875 263.785156 207.953125 263.679688 207.875 C 267.285156 208.167969 270.894531 208.445312 274.488281 208.703125 C 280.425781 209.121094 286.359375 209.476562 292.308594 209.785156 C 288.390625 212.554688 283.632812 214.066406 278.953125 213.914062 Z M 200.925781 187.410156 C 201.128906 187.089844 201.335938 186.898438 201.625 186.605469 C 201.558594 186.671875 201.613281 186.617188 201.6875 186.542969 C 201.722656 186.511719 201.773438 186.46875 201.828125 186.4375 C 201.722656 186.5 201.894531 186.371094 202.085938 186.273438 C 201.300781 186.648438 202.589844 186.015625 201.945312 186.351562 C 201.945312 186.351562 201.945312 186.351562 201.9375 186.351562 C 202.054688 186.285156 202.417969 186.113281 202.484375 186.082031 C 203.160156 185.769531 203.769531 185.511719 204.4375 185.265625 C 206.242188 184.589844 208.074219 184.023438 209.933594 183.507812 C 214.847656 182.15625 219.851562 181.136719 224.875 180.257812 C 231.328125 179.121094 237.820312 178.21875 244.324219 177.449219 C 244.335938 177.449219 244.335938 177.449219 244.347656 177.449219 C 244.101562 186.746094 247.179688 196.132812 252.921875 203.480469 C 247.351562 202.847656 241.792969 202.128906 236.253906 201.292969 C 228.933594 200.1875 221.601562 198.898438 214.460938 196.945312 C 210.40625 195.832031 205.777344 194.621094 202.417969 191.949219 C 201.558594 191.261719 200.667969 190.363281 200.496094 189.222656 C 200.390625 188.570312 200.582031 187.957031 200.925781 187.410156 Z M 358.367188 399.023438 C 358.140625 414.222656 357.90625 429.433594 357.679688 444.632812 C 357.484375 457.769531 357.28125 470.921875 357.089844 484.058594 C 356.992188 490.28125 356.648438 496.566406 356.796875 502.796875 C 354.117188 502.796875 351.433594 502.796875 348.75 502.796875 C 348.695312 498.488281 348.640625 494.175781 348.585938 489.863281 C 348.425781 477.164062 348.265625 464.464844 348.09375 451.773438 C 347.898438 436.425781 347.695312 421.089844 347.503906 405.738281 C 347.332031 392.472656 347.160156 379.203125 346.988281 365.925781 C 346.933594 361.527344 346.871094 357.117188 346.816406 352.71875 C 346.804688 352.152344 346.816406 351.574219 346.828125 350.992188 C 348.242188 352.472656 349.648438 353.953125 351.066406 355.421875 C 351.152344 355.507812 351.238281 355.605469 351.324219 355.703125 C 352.128906 356.539062 353.492188 357.386719 354.511719 356.304688 C 354.652344 356.152344 354.792969 356.003906 354.929688 355.863281 C 356.316406 354.695312 357.691406 353.523438 359.074219 352.355469 C 359.03125 355.304688 358.988281 358.246094 358.945312 361.195312 C 358.753906 373.796875 358.558594 386.410156 358.367188 399.023438 Z M 378.859375 495.785156 C 388.023438 496.46875 397.007812 497.058594 405.898438 499.785156 C 405.949219 499.796875 406.15625 499.871094 406.242188 499.902344 C 406.347656 499.945312 406.464844 499.976562 406.574219 500.019531 C 406.90625 500.148438 407.238281 500.277344 407.570312 500.429688 C 407.871094 500.558594 408.164062 500.695312 408.453125 500.855469 C 408.582031 500.933594 408.710938 501.007812 408.839844 501.082031 C 408.847656 501.09375 408.859375 501.09375 408.871094 501.09375 C 408.882812 501.105469 408.890625 501.113281 408.914062 501.136719 C 410.222656 502.261719 410.878906 502.980469 411.78125 504.3125 C 412.777344 505.792969 413.078125 506.476562 413.304688 508.042969 C 413.324219 508.160156 413.324219 508.269531 413.324219 508.386719 C 413.324219 508.472656 413.324219 508.578125 413.316406 508.621094 C 413.273438 508.945312 413.21875 509.253906 413.132812 509.578125 C 413.121094 509.621094 413.089844 509.71875 413.058594 509.792969 C 413.003906 509.910156 412.949219 510.039062 412.886719 510.144531 C 412.789062 510.296875 412.703125 510.445312 412.605469 510.597656 C 412.574219 510.648438 412.542969 510.691406 412.519531 510.714844 C 412.476562 510.769531 412.433594 510.8125 412.390625 510.863281 C 411.113281 512.214844 409.738281 512.925781 407.636719 513.675781 C 404.449219 514.824219 401.054688 515.371094 397.707031 515.789062 C 395.515625 516.054688 393.511719 516.21875 391.8125 516.324219 C 389.292969 516.484375 386.769531 516.59375 384.246094 516.65625 C 372.136719 517 360.007812 516.667969 347.910156 516.109375 C 336.996094 515.605469 326.066406 514.929688 315.214844 513.71875 C 314.710938 513.664062 314.214844 513.601562 313.710938 513.546875 C 313.667969 513.546875 313.367188 513.503906 313.261719 513.492188 C 313.089844 513.472656 312.929688 513.449219 312.757812 513.429688 C 311.832031 513.308594 310.910156 513.191406 309.988281 513.050781 C 307.828125 512.730469 305.683594 512.3125 303.546875 511.914062 C 300.746094 511.402344 297.910156 510.941406 295.171875 510.15625 C 294.914062 510.082031 294.667969 510.007812 294.410156 509.929688 C 294.324219 509.910156 294.28125 509.886719 294.238281 509.878906 C 294.195312 509.867188 294.164062 509.84375 294.089844 509.824219 C 293.671875 509.664062 293.253906 509.492188 292.84375 509.289062 C 292.660156 509.191406 292.480469 509.09375 292.296875 508.988281 C 292.265625 508.964844 292.242188 508.957031 292.222656 508.945312 C 292.199219 508.921875 292.179688 508.914062 292.144531 508.878906 C 291.964844 508.742188 291.167969 507.988281 291.4375 508.300781 C 290.40625 507.078125 290.214844 505.707031 290.269531 504.03125 C 290.300781 503.035156 290.460938 502.058594 290.613281 501.070312 C 290.621094 501.027344 290.621094 501.007812 290.621094 500.984375 C 290.644531 500.953125 290.664062 500.933594 290.699219 500.890625 C 290.75 500.804688 290.824219 500.6875 290.867188 500.601562 C 290.878906 500.589844 290.878906 500.578125 290.878906 500.566406 C 291.039062 500.394531 291.210938 500.222656 291.375 500.054688 C 291.425781 499.988281 291.46875 499.957031 291.492188 499.914062 C 291.523438 499.902344 291.554688 499.882812 291.609375 499.847656 C 292.113281 499.515625 292.617188 499.207031 293.144531 498.914062 C 293.296875 498.851562 293.746094 498.625 293.863281 498.574219 C 294.21875 498.421875 294.574219 498.28125 294.925781 498.144531 C 295.773438 497.820312 296.621094 497.542969 297.492188 497.285156 C 297.707031 497.222656 297.921875 497.15625 298.136719 497.101562 C 298.191406 497.09375 298.210938 497.082031 298.242188 497.070312 C 298.265625 497.070312 298.265625 497.058594 298.285156 497.058594 C 298.738281 496.941406 299.199219 496.824219 299.648438 496.71875 C 300.691406 496.46875 301.742188 496.234375 302.804688 496.03125 C 304.996094 495.601562 307.195312 495.238281 309.40625 494.925781 C 311.738281 494.605469 314.066406 494.324219 316.394531 494.089844 C 317.523438 493.972656 318.648438 493.863281 319.777344 493.765625 C 320.335938 493.714844 320.894531 493.671875 321.449219 493.628906 C 321.730469 493.605469 322.007812 493.585938 322.289062 493.5625 C 322.449219 493.554688 322.597656 493.542969 322.761719 493.53125 C 322.804688 493.53125 322.847656 493.519531 322.910156 493.519531 C 329.535156 493.039062 336.179688 492.738281 342.824219 492.640625 C 343.082031 492.640625 343.339844 492.628906 343.597656 492.628906 C 343.605469 496.191406 343.636719 499.753906 343.808594 503.292969 C 343.808594 503.378906 343.808594 503.464844 343.808594 503.550781 C 343.832031 505.382812 346.441406 506.605469 347.996094 506.605469 C 352.332031 506.605469 356.671875 506.605469 361.015625 506.605469 C 361.285156 506.605469 361.445312 506.53125 361.566406 506.425781 C 361.585938 506.414062 361.609375 506.402344 361.617188 506.382812 C 361.652344 506.347656 361.671875 506.316406 361.695312 506.285156 C 361.769531 506.175781 361.832031 506.039062 361.832031 505.855469 C 361.886719 502.199219 361.941406 498.550781 361.996094 494.894531 C 367.597656 495.042969 373.234375 495.367188 378.859375 495.785156 Z M 473.84375 221.917969 C 467.050781 229.113281 460.246094 236.3125 453.449219 243.519531 C 446.03125 251.371094 438.625 259.222656 431.207031 267.074219 C 423.726562 275 416.246094 282.925781 408.753906 290.84375 C 401.773438 298.234375 394.796875 305.621094 387.808594 313.011719 C 381.90625 319.253906 376.011719 325.507812 370.109375 331.75 C 365.859375 336.246094 361.617188 340.738281 357.367188 345.234375 C 355.726562 346.972656 353.890625 348.667969 352.289062 350.488281 C 351.570312 349.738281 350.851562 348.988281 350.132812 348.238281 C 346.40625 344.355469 342.695312 340.472656 338.96875 336.589844 C 333.429688 330.808594 327.902344 325.035156 322.363281 319.253906 C 315.644531 312.242188 308.914062 305.214844 302.195312 298.199219 C 294.828125 290.511719 287.464844 282.832031 280.101562 275.140625 C 272.664062 267.382812 265.234375 259.617188 257.796875 251.863281 C 250.832031 244.59375 243.863281 237.320312 236.898438 230.058594 C 231.035156 223.945312 225.1875 217.832031 219.324219 211.71875 C 215.320312 207.535156 211.308594 203.351562 207.304688 199.167969 C 210.082031 200.015625 212.925781 200.667969 215.707031 201.292969 C 229.019531 204.25 242.640625 205.976562 256.273438 207.234375 C 256.292969 207.253906 256.304688 207.265625 256.316406 207.285156 C 263.777344 214.546875 274.371094 218.410156 284.472656 216.90625 C 285.050781 218.054688 285.628906 219.203125 286.222656 220.339844 C 278.847656 221.15625 271.441406 222.140625 264.25 223.957031 C 261.832031 224.566406 259.375 225.230469 257.121094 226.304688 C 255.886719 226.882812 254.382812 227.6875 253.792969 229.007812 C 252.964844 230.851562 253.996094 232.890625 255.445312 234.457031 C 255.296875 234.929688 255.390625 235.464844 255.898438 236.011719 C 259.0625 239.488281 262.242188 242.960938 265.40625 246.4375 C 273.050781 254.8125 280.703125 263.203125 288.347656 271.578125 C 297.566406 281.683594 306.789062 291.785156 316.007812 301.902344 C 324.003906 310.664062 332.003906 319.425781 340 328.191406 C 342.609375 331.054688 345.214844 333.90625 347.824219 336.769531 C 349.082031 338.144531 350.273438 339.601562 351.59375 340.902344 C 351.644531 340.953125 351.699219 341.019531 351.753906 341.070312 C 352.742188 342.15625 355.265625 342.070312 356.21875 340.988281 C 359.332031 337.488281 362.433594 333.992188 365.546875 330.484375 C 373.019531 322.085938 380.476562 313.6875 387.949219 305.28125 C 396.945312 295.152344 405.941406 285.039062 414.933594 274.914062 C 422.71875 266.160156 430.488281 257.410156 438.273438 248.65625 C 441.621094 244.882812 444.980469 241.117188 448.328125 237.339844 C 450.015625 236.578125 451.957031 235.433594 452.011719 233.4375 C 452.109375 230.046875 448.726562 227.503906 445.988281 226.238281 C 442.414062 224.589844 438.445312 223.761719 434.609375 222.988281 C 428.609375 221.789062 422.535156 220.960938 416.460938 220.285156 C 399.414062 218.386719 382.238281 217.617188 365.105469 217.316406 C 346.128906 216.984375 327.117188 217.292969 308.183594 218.464844 C 305.007812 218.65625 301.816406 218.890625 298.640625 219.148438 C 297.726562 216.941406 296.816406 214.71875 295.902344 212.511719 C 297.007812 211.769531 298.050781 210.964844 299.015625 210.097656 C 318.691406 210.988281 338.398438 211.296875 358.097656 211.179688 C 384.933594 211.019531 411.8125 210.074219 438.550781 207.738281 C 448.878906 206.835938 459.203125 205.722656 469.453125 204.175781 C 477 203.039062 484.558594 201.71875 491.910156 199.671875 C 493.296875 199.285156 494.679688 198.867188 496.054688 198.417969 C 494.195312 200.378906 492.339844 202.351562 490.484375 204.316406 C 484.933594 210.183594 479.382812 216.050781 473.84375 221.917969 Z M 473.84375 221.917969 " fill-opacity="1" fill-rule="nonzero"/></g><path fill="#211915" d="M 201.902344 186.382812 C 201.914062 186.382812 201.925781 186.371094 201.9375 186.359375 C 201.9375 186.359375 201.9375 186.359375 201.945312 186.359375 C 201.9375 186.359375 201.925781 186.371094 201.902344 186.382812 Z M 201.902344 186.382812 " fill-opacity="1" fill-rule="nonzero"/><path fill="#211915" d="M 201.945312 186.359375 C 201.902344 186.382812 201.871094 186.414062 201.828125 186.4375 C 201.851562 186.425781 201.894531 186.394531 201.945312 186.359375 Z M 201.945312 186.359375 " fill-opacity="1" fill-rule="nonzero"/><path fill="#211915" d="M 201.945312 186.359375 C 201.96875 186.351562 201.96875 186.351562 201.980469 186.339844 C 201.980469 186.339844 201.957031 186.351562 201.945312 186.359375 Z M 201.945312 186.359375 " fill-opacity="1" fill-rule="nonzero"/><path fill="#211915" d="M 283.238281 172.308594 C 283 172.160156 283.074219 172.214844 283.238281 172.308594 Z M 283.238281 172.308594 " fill-opacity="1" fill-rule="nonzero"/><path fill="#211915" d="M 289.699219 174.894531 C 293.679688 172.964844 294.863281 167.996094 293.617188 164.027344 C 292.167969 159.78125 288.464844 156.820312 284 156.261719 C 279.929688 155.75 276.046875 157.796875 274.683594 161.746094 C 273.363281 165.53125 274.769531 169.851562 277.570312 172.589844 C 280.648438 175.613281 285.726562 176.824219 289.699219 174.894531 Z M 283.515625 172.449219 C 283.625 172.480469 283.773438 172.511719 283.773438 172.511719 C 283.71875 172.535156 283.625 172.503906 283.515625 172.449219 Z M 283.933594 172.523438 C 283.933594 172.523438 283.925781 172.523438 283.914062 172.523438 C 283.925781 172.535156 283.925781 172.523438 283.933594 172.523438 Z M 279.792969 164.746094 C 279.964844 163.386719 280.425781 162.152344 281.304688 161.113281 C 281.777344 160.554688 282.023438 160.339844 282.636719 159.984375 C 282.753906 159.921875 282.871094 159.855469 283 159.792969 C 283.042969 159.769531 283.054688 159.761719 283.085938 159.75 C 283.097656 159.75 283.128906 159.738281 283.160156 159.726562 C 283.324219 159.675781 283.484375 159.632812 283.644531 159.578125 C 283.6875 159.554688 283.710938 159.554688 283.742188 159.546875 C 283.761719 159.546875 283.773438 159.546875 283.804688 159.546875 C 283.945312 159.535156 284.105469 159.535156 284.246094 159.511719 C 284.320312 159.511719 284.394531 159.523438 284.480469 159.523438 C 284.503906 159.523438 284.503906 159.523438 284.523438 159.523438 C 284.601562 159.546875 284.675781 159.554688 284.75 159.578125 C 284.773438 159.589844 284.792969 159.597656 284.824219 159.621094 C 284.921875 159.664062 285.234375 159.835938 285.253906 159.835938 C 285.425781 159.941406 285.609375 160.058594 285.652344 160.070312 C 286.800781 160.949219 287.59375 162.066406 288.109375 163.589844 C 288.957031 166.269531 288.648438 169.339844 286.585938 171.367188 C 286.222656 171.71875 285.8125 172 285.210938 172.277344 C 285.179688 172.289062 285.160156 172.296875 285.148438 172.308594 C 285.117188 172.320312 285.09375 172.320312 285.039062 172.339844 C 284.910156 172.375 284.78125 172.417969 284.652344 172.449219 C 284.609375 172.46875 284.589844 172.46875 284.558594 172.480469 C 284.535156 172.480469 284.523438 172.480469 284.492188 172.480469 C 284.320312 172.492188 284.148438 172.503906 283.96875 172.523438 C 283.96875 172.523438 283.957031 172.523438 283.957031 172.523438 C 284.523438 172.460938 283.804688 172.449219 283.699219 172.46875 C 283.65625 172.460938 283.613281 172.460938 283.601562 172.449219 C 283.539062 172.4375 283.484375 172.425781 283.453125 172.417969 C 283.375 172.382812 283.300781 172.339844 283.226562 172.296875 C 283.246094 172.308594 283.257812 172.320312 283.28125 172.332031 C 283.140625 172.246094 282.988281 172.160156 282.839844 172.074219 C 282.753906 172.019531 282.667969 171.964844 282.582031 171.914062 C 281.625 171.109375 280.917969 170.292969 280.382812 168.984375 C 279.855469 167.65625 279.609375 166.175781 279.792969 164.746094 Z M 279.792969 164.746094 " fill-opacity="1" fill-rule="nonzero"/><path fill="#211915" d="M 375.863281 285.84375 C 380.554688 287.410156 386.652344 287.011719 390.148438 283.128906 C 392.972656 280 393.359375 275.277344 391.105469 271.71875 C 388.402344 267.449219 382.679688 266.097656 377.945312 266.816406 C 372.976562 267.566406 368.875 271.277344 368.800781 276.5 C 368.863281 280.855469 371.792969 284.480469 375.863281 285.84375 Z M 381.015625 268.542969 C 381.003906 268.542969 380.992188 268.542969 380.972656 268.542969 C 381.070312 268.53125 381.113281 268.523438 381.015625 268.542969 Z M 379.425781 268.992188 C 379.726562 268.863281 380.015625 268.757812 380.339844 268.683594 C 380.402344 268.660156 380.90625 268.566406 380.597656 268.617188 C 380.574219 268.617188 380.8125 268.574219 380.960938 268.554688 C 380.972656 268.554688 380.984375 268.554688 381.003906 268.554688 C 381.003906 268.554688 381.003906 268.554688 380.992188 268.554688 C 380.746094 268.609375 381.132812 268.585938 381.175781 268.566406 C 381.207031 268.566406 381.242188 268.574219 381.273438 268.574219 C 381.316406 268.585938 381.359375 268.585938 381.378906 268.597656 C 381.488281 268.617188 381.59375 268.648438 381.636719 268.660156 C 383.078125 269.132812 384.3125 270.128906 385.222656 271.34375 C 387.207031 273.992188 387.542969 277.800781 385.898438 280.707031 C 385.105469 282.113281 383.945312 283.324219 382.519531 284.085938 C 381.992188 284.363281 381.261719 284.632812 380.8125 284.730469 C 380.789062 284.730469 380.605469 284.75 380.457031 284.769531 C 380.4375 284.769531 380.402344 284.769531 380.382812 284.78125 C 380.339844 284.78125 380.285156 284.78125 380.230469 284.78125 C 380.179688 284.769531 380.058594 284.75 380.050781 284.761719 C 379.480469 284.621094 378.792969 284.332031 378.128906 283.882812 C 377.441406 283.421875 376.839844 282.851562 376.324219 282.207031 C 375.101562 280.652344 374.488281 278.820312 374.457031 276.84375 C 374.5 273.519531 376.324219 270.34375 379.425781 268.992188 Z M 379.425781 268.992188 " fill-opacity="1" fill-rule="nonzero"/><path fill="#211915" d="M 398.972656 261.785156 C 401.914062 262.824219 405.855469 262.601562 408.066406 260.15625 C 409.546875 258.515625 409.773438 255.917969 408.582031 254.050781 C 406.820312 251.261719 403.042969 250.460938 399.972656 250.921875 C 397.191406 251.339844 394.679688 253.375 394.636719 256.347656 C 394.679688 258.984375 396.570312 260.9375 398.972656 261.785156 Z M 401.765625 259.738281 C 401.753906 259.738281 401.753906 259.726562 401.742188 259.726562 C 401.828125 259.695312 401.894531 259.695312 401.765625 259.738281 Z M 401.667969 259.769531 C 401.65625 259.78125 401.65625 259.78125 401.648438 259.789062 C 401.648438 259.789062 401.648438 259.789062 401.636719 259.789062 C 401.648438 259.78125 401.65625 259.769531 401.667969 259.769531 Z M 401.988281 259.886719 C 401.980469 259.886719 401.96875 259.875 401.957031 259.875 C 402.355469 259.941406 402.183594 259.941406 401.988281 259.886719 Z M 402.226562 253.398438 C 402.238281 253.398438 402.238281 253.410156 402.246094 253.410156 C 402.160156 253.441406 402.097656 253.441406 402.226562 253.398438 Z M 402.324219 253.367188 C 402.332031 253.355469 402.332031 253.355469 402.34375 253.34375 C 402.34375 253.34375 402.34375 253.34375 402.355469 253.34375 C 402.34375 253.355469 402.332031 253.367188 402.324219 253.367188 Z M 402 253.246094 C 402.011719 253.246094 402.023438 253.257812 402.03125 253.257812 C 401.636719 253.195312 401.808594 253.195312 402 253.246094 Z M 400.5625 255.253906 C 400.710938 254.921875 400.894531 254.597656 401.132812 254.308594 C 401.25 254.160156 401.390625 254.019531 401.527344 253.871094 C 401.539062 253.859375 401.539062 253.859375 401.550781 253.847656 C 401.5625 253.835938 401.5625 253.835938 401.570312 253.828125 C 401.644531 253.773438 401.730469 253.710938 401.808594 253.65625 C 401.882812 253.601562 402.109375 253.503906 402.257812 253.417969 C 402.367188 253.503906 402.503906 253.589844 402.589844 253.65625 C 402.675781 253.730469 402.753906 253.828125 402.839844 253.902344 C 402.847656 253.914062 402.847656 253.902344 402.847656 253.914062 C 402.96875 254.09375 403.09375 254.257812 403.203125 254.4375 C 403.394531 254.769531 403.523438 255.136719 403.621094 255.5 C 403.761719 256.292969 403.695312 257.085938 403.429688 257.847656 C 403.277344 258.191406 403.085938 258.515625 402.859375 258.816406 C 402.742188 258.964844 402.601562 259.105469 402.460938 259.253906 C 402.453125 259.265625 402.453125 259.265625 402.441406 259.277344 C 402.429688 259.285156 402.429688 259.285156 402.417969 259.296875 C 402.34375 259.351562 402.257812 259.414062 402.183594 259.46875 C 402.109375 259.523438 401.882812 259.617188 401.730469 259.703125 C 401.625 259.617188 401.484375 259.535156 401.398438 259.46875 C 401.3125 259.394531 401.238281 259.296875 401.152344 259.222656 C 401.140625 259.210938 401.140625 259.222656 401.140625 259.210938 C 401.023438 259.027344 400.894531 258.867188 400.789062 258.6875 C 400.605469 258.351562 400.476562 258.011719 400.378906 257.644531 C 400.328125 257.367188 400.292969 257.085938 400.285156 256.796875 C 400.292969 256.273438 400.390625 255.757812 400.5625 255.253906 Z M 400.5625 255.253906 " fill-opacity="1" fill-rule="nonzero"/></svg>